# xmcd
#
# Track frame offsets: 
#        150
#        16495
#        27582
#        43685
#        56589
#        71075
#        87727
#        105012
#        118100
#        136464
#        152491
#        168772
#        186847
#        199821
#
# Disc length: 2896 seconds
#
# Revision: 0
# Processed by: cddbd v1.5.2PL0 Copyright (c) Steve Scherf et al.
# Submitted via: ExactAudioCopyFreeDBPlugin 1.0
#
DISCID=be0b4e0e
DTITLE=Various Artist - Very Best Country Hits, The
DYEAR=2014
DGENRE=Country
TTITLE0=Alabama - Jukebox in My Mind
TTITLE1=Alan Jackson - Chattahoochie
TTITLE2=Patty Loveless - Blame It on Your Heart
TTITLE3=Pam Tillis - Mi Vida Loca (My Crazy Life)
TTITLE4=Mindy McCready - Guys Do It All the Time
TTITLE5=Mary Chapin Carpenter - Shut Up and Kiss Me
TTITLE6=K.T. Oslin - Come Next Monday
TTITLE7=John Anderson - Straight Tequila Night
TTITLE8=Keith Whitley - It Ain't Nothin'
TTITLE9=Lorrie Morgan - Five Minutes
TTITLE10=Sara Evans - No Place That Far
TTITLE11=Lonestar - Amazed
TTITLE12=Martina McBride - I Love You (Single Version)
TTITLE13=Collin Raye - Love, Me
EXTD=
EXTT0=
EXTT1=
EXTT2=
EXTT3=
EXTT4=
EXTT5=
EXTT6=
EXTT7=
EXTT8=
EXTT9=
EXTT10=
EXTT11=
EXTT12=
EXTT13=
PLAYORDER=
